<!DOCTYPE svg PUBLIC "-//W3C//DTD SVG 1.1//EN" "http://www.w3.org/Graphics/SVG/1.1/DTD/svg11.dtd">
<!-- Uploaded to: SVG Repo, www.svgrepo.com, Transformed by: SVG Repo Mixer Tools -->
<svg height="64px" width="64px" version="1.1" id="Layer_1" xmlns="http://www.w3.org/2000/svg" xmlns:xlink="http://www.w3.org/1999/xlink" viewBox="0 0 512 512" xml:space="preserve" fill="#000000">
<g id="SVGRepo_bgCarrier" stroke-width="0"/>
<g id="SVGRepo_tracerCarrier" stroke-linecap="round" stroke-linejoin="round"/>
<g id="SVGRepo_iconCarrier"> <polygon style="fill:#ededed;" points="151.147,397.125 443.44,397.125 470.282,245.119 124.305,245.119 "/> <path style="fill:#d6d6d6;" d="M499.176,138.692c-2.94-3.505-7.282-5.53-11.856-5.53h-76.096c-8.546,0-15.476,6.929-15.476,15.476 s6.93,15.476,15.476,15.476h57.647l-11.572,65.527H137.287l-11.572-65.527h58.367c8.546,0,15.476-6.929,15.476-15.476 c0-8.547-6.93-15.476-15.476-15.476h-64.288L101.526,36.14c-1.377-7.314-7.766-12.611-15.208-12.611H24.679 c-8.546,0-15.476,6.929-15.476,15.476s6.93,15.476,15.476,15.476h48.802l62.425,345.336c1.306,7.395,7.732,12.785,15.241,12.785 h64.313c18.87,0,34.224,15.352,34.224,34.222c0,18.87-15.354,34.224-34.224,34.224s-34.222-15.352-34.222-34.224 c0-8.547-6.93-15.476-15.476-15.476s-15.476,6.929-15.476,15.476c0,35.939,29.238,65.176,65.175,65.176s65.176-29.237,65.176-65.176 c0-12.546-3.572-24.27-9.739-34.222h108.707c18.87,0,34.222,15.352,34.222,34.222c0,18.87-15.352,34.224-34.222,34.224 c-18.87,0-34.222-15.352-34.222-34.224c0-8.547-6.93-15.476-15.476-15.476s-15.476,6.929-15.476,15.476 c0,35.939,29.237,65.176,65.175,65.176s65.175-29.237,65.175-65.176c0-12.546-3.572-24.27-9.739-34.222h8.402 c7.509,0,13.935-5.39,15.241-12.785l26.842-152.007l17.038-96.478C503.355,146.825,502.117,142.198,499.176,138.692z M430.459,381.649H164.13l-21.377-121.054h309.08L430.459,381.649z"/> <polygon style="fill:#ededed;" points="261.927,104.69 261.927,173.642 332.661,173.642 332.661,104.69 367.547,104.69 297.293,15.476 227.041,104.69 "/> <path style="fill:#d6d6d6;" d="M332.661,189.118h-70.735c-8.546,0-15.476-6.929-15.476-15.476v-53.476h-19.409 c-5.927,0-11.335-3.386-13.922-8.718c-2.589-5.333-1.904-11.675,1.764-16.332l70.254-89.214C288.071,2.174,292.551,0,297.295,0 s9.224,2.174,12.158,5.901l69.728,88.545c2.411,2.728,3.874,6.316,3.874,10.244c0,8.547-6.929,15.476-15.476,15.476 c-0.008,0-0.02,0-0.031,0h-19.41v53.476C348.137,182.19,341.208,189.118,332.661,189.118z M277.402,158.166h39.783V104.69 c0-8.547,6.93-15.476,15.476-15.476h2.999l-38.367-48.722l-38.367,48.722h2.999c8.546,0,15.476,6.929,15.476,15.476V158.166z"/> </g>
</svg>