<!DOCTYPE svg PUBLIC "-//W3C//DTD SVG 1.1//EN" "http://www.w3.org/Graphics/SVG/1.1/DTD/svg11.dtd">
<!-- Uploaded to: SVG Repo, www.svgrepo.com, Transformed by: SVG Repo Mixer Tools -->
<svg height="64px" width="64px" version="1.1" id="Layer_1" xmlns="http://www.w3.org/2000/svg" xmlns:xlink="http://www.w3.org/1999/xlink" viewBox="0 0 512 512" xml:space="preserve" fill="#000000">
<g id="SVGRepo_bgCarrier" stroke-width="0"/>
<g id="SVGRepo_tracerCarrier" stroke-linecap="round" stroke-linejoin="round"/>
<g id="SVGRepo_iconCarrier"> <polygon style="fill:#e3e3e3;" points="151.147,397.125 443.44,397.125 470.282,245.119 124.305,245.119 "/> <path style="fill:#d6d6d6;" d="M499.176,138.692c-2.939-3.505-7.282-5.53-11.856-5.53h-76.096c-8.546,0-15.476,6.929-15.476,15.476 s6.93,15.476,15.476,15.476h57.647l-11.572,65.527H137.287l-11.572-65.527h58.367c8.547,0,15.476-6.929,15.476-15.476 c0-8.547-6.929-15.476-15.476-15.476h-64.288l-18.27-97.023c-1.377-7.314-7.766-12.611-15.208-12.611H24.679 c-8.547,0-15.476,6.929-15.476,15.476s6.929,15.476,15.476,15.476h48.802l62.425,345.336c1.306,7.395,7.732,12.785,15.241,12.785 h64.313c18.87,0,34.224,15.352,34.224,34.222c0,18.87-15.352,34.224-34.224,34.224s-34.222-15.352-34.222-34.224 c0-8.547-6.929-15.476-15.476-15.476s-15.476,6.929-15.476,15.476c0,35.939,29.238,65.176,65.175,65.176 c35.939,0,65.176-29.237,65.176-65.176c0-12.546-3.572-24.27-9.739-34.222h108.707c18.87,0,34.222,15.352,34.222,34.222 c0,18.87-15.352,34.224-34.222,34.224c-18.87,0-34.222-15.352-34.222-34.224c0-8.547-6.93-15.476-15.476-15.476 s-15.476,6.929-15.476,15.476c0,35.939,29.237,65.176,65.175,65.176s65.175-29.237,65.175-65.176c0-12.546-3.572-24.27-9.739-34.222 h8.402c7.509,0,13.935-5.39,15.241-12.785l26.842-152.007l17.038-96.478C503.355,146.825,502.117,142.198,499.176,138.692z M430.459,381.649H164.13l-21.377-121.054h309.08L430.459,381.649z"/> <polygon style="fill:#e3e3e3;" points="332.661,84.43 332.661,15.476 261.927,15.476 261.927,84.43 227.041,84.43 297.293,173.642 367.547,84.43 "/> <path style="fill:#d6d6d6;" d="M297.295,189.118c-4.742,0-9.224-2.174-12.158-5.901l-70.254-89.214 c-3.668-4.657-4.353-10.999-1.764-16.332c2.588-5.332,7.995-8.718,13.922-8.718h19.409V15.476C246.449,6.929,253.378,0,261.925,0 h70.735c8.546,0,15.476,6.929,15.476,15.476v53.478h19.41c5.927,0,11.335,3.386,13.922,8.718c2.589,5.333,1.904,11.675-1.764,16.332 l-70.254,89.214C306.518,186.944,302.036,189.118,297.295,189.118z M258.928,99.906l38.367,48.722l38.367-48.722h-2.999 c-8.546,0-15.476-6.929-15.476-15.476V30.952h-39.783V84.43c0,8.547-6.93,15.476-15.476,15.476H258.928z"/> </g>
</svg>