<!DOCTYPE svg PUBLIC "-//W3C//DTD SVG 1.1//EN" "http://www.w3.org/Graphics/SVG/1.1/DTD/svg11.dtd">
<!-- Uploaded to: SVG Repo, www.svgrepo.com, Transformed by: SVG Repo Mixer Tools -->
<svg fill="#000000" height="64px" width="64px" version="1.1" id="Layer_1" xmlns="http://www.w3.org/2000/svg" xmlns:xlink="http://www.w3.org/1999/xlink" viewBox="0 0 512 512" xml:space="preserve">
<g id="SVGRepo_bgCarrier" stroke-width="0"/>
<g id="SVGRepo_tracerCarrier" stroke-linecap="round" stroke-linejoin="round"/>
<g id="SVGRepo_iconCarrier"> <g> <g> <g> <path d="M375.467,372.628c0,9.156,7.834,15.957,17.067,18.628v-37.265C383.3,356.662,375.467,363.471,375.467,372.628z"/> <path d="M409.6,410.878v37.316c9.216-2.594,17.067-9.233,17.067-18.688C426.667,420.359,418.833,413.558,409.6,410.878z"/> <path d="M438.963,296.943c3.098-13.747,4.77-27.486,4.77-40.943c0-59.588-28.058-113.818-77.022-149.53 C364.339,47.386,315.657,0,256,0c-59.656,0-108.339,47.386-110.711,106.47C96.324,142.182,68.267,196.412,68.267,256 c0,13.457,1.673,27.196,4.77,40.943C30.507,312.482,0,353.229,0,401.067C0,462.234,49.766,512,110.933,512 c47.846,0,88.593-30.507,104.124-73.037c13.747,3.106,27.486,4.77,40.943,4.77c13.457,0,27.196-1.664,40.943-4.77 C312.474,481.493,353.22,512,401.067,512C462.234,512,512,462.234,512,401.067C512,353.229,481.493,312.482,438.963,296.943z M198.767,113.434l25.591-25.583l0.017-0.026l25.591-25.591c3.337-3.328,8.73-3.328,12.066,0l25.591,25.591l0.017,0.026 l25.591,25.583c3.337,3.337,3.337,8.738,0,12.066c-1.664,1.673-3.849,2.5-6.033,2.5c-2.185,0-4.369-0.828-6.033-2.5 l-11.034-11.034V153.6c0,4.719-3.814,8.533-8.533,8.533c-4.719,0-8.533-3.814-8.533-8.533V97.399L256,80.333l-17.067,17.067 V153.6c0,4.719-3.814,8.533-8.533,8.533s-8.533-3.814-8.533-8.533v-39.134L210.833,125.5c-3.337,3.336-8.73,3.336-12.066,0 C195.43,122.172,195.43,116.77,198.767,113.434z M119.467,465.673v3.661c0,4.719-3.814,8.533-8.533,8.533 s-8.533-3.814-8.533-8.533v-3.874c-3.029-0.734-5.956-1.852-8.789-3.396c-0.631,4.096-4.011,7.27-8.277,7.27 c-4.719,0-8.533-3.814-8.533-8.533v-34.133c0-4.71,3.814-8.533,8.533-8.533s8.533,3.823,8.533,8.533v13.764 c2.79,3.106,5.615,5.402,8.533,6.852v-38.502c-17.681-3.277-34.133-16.469-34.133-36.156c0-19.686,16.452-32.879,34.133-36.156 V332.8c0-4.71,3.814-8.533,8.533-8.533s8.533,3.823,8.533,8.533v3.908c3.243,0.759,6.17,1.886,8.798,3.302 c0.657-4.053,4.019-7.211,8.269-7.211c4.719,0,8.533,3.823,8.533,8.533v34.133c0,4.719-3.814,8.533-8.533,8.533 S128,380.186,128,375.467v-13.79c-2.85-3.217-5.649-5.521-8.533-6.929v38.613c17.681,3.277,34.133,16.469,34.133,36.147 C153.6,449.195,137.148,462.396,119.467,465.673z M290.133,401.067c0,7.347,0.759,14.524,2.125,21.478 c-24.303,5.359-48.213,5.359-72.516,0c1.365-6.955,2.125-14.131,2.125-21.478c0-61.167-49.766-110.933-110.933-110.933 c-7.347,0-14.515,0.759-21.47,2.133c-2.697-12.203-4.13-24.371-4.13-36.267c0-50.312,22.11-96.444,61.065-128.777 c7.927,53.453,53.982,94.643,109.602,94.643c55.62,0,101.675-41.19,109.602-94.643c38.955,32.333,61.065,78.464,61.065,128.777 c0,11.895-1.434,24.064-4.13,36.267c-6.955-1.374-14.123-2.133-21.47-2.133C339.9,290.133,290.133,339.9,290.133,401.067z M409.6,465.673v3.661c0,4.719-3.814,8.533-8.533,8.533c-4.719,0-8.533-3.814-8.533-8.533v-3.874 c-3.029-0.734-5.956-1.852-8.789-3.396c-0.631,4.096-4.011,7.27-8.277,7.27c-4.719,0-8.533-3.814-8.533-8.533v-34.133 c0-4.71,3.814-8.533,8.533-8.533s8.533,3.823,8.533,8.533v13.764c2.79,3.106,5.615,5.402,8.533,6.852v-38.502 c-17.681-3.277-34.133-16.469-34.133-36.156c0-19.686,16.452-32.879,34.133-36.156V332.8c0-4.71,3.814-8.533,8.533-8.533 c4.719,0,8.533,3.823,8.533,8.533v3.908c3.243,0.759,6.17,1.886,8.798,3.302c0.657-4.053,4.019-7.211,8.269-7.211 c4.719,0,8.533,3.823,8.533,8.533v34.133c0,4.719-3.814,8.533-8.533,8.533s-8.533-3.814-8.533-8.533v-13.79 c-2.85-3.217-5.649-5.521-8.533-6.929v38.613c17.681,3.277,34.133,16.469,34.133,36.147 C443.733,449.195,427.281,462.396,409.6,465.673z"/> <path d="M119.467,410.878v37.316c9.216-2.594,17.067-9.233,17.067-18.688C136.533,420.359,128.7,413.558,119.467,410.878z"/> <path d="M85.333,372.628c0,9.156,7.834,15.957,17.067,18.628v-37.265C93.167,356.662,85.333,363.471,85.333,372.628z"/> </g> </g> </g> </g>
</svg>